# xmcd
#
# Track frame offsets:
#	150
#	16694
#	34131
#	50526
#	75288
#	96000
#	111322
#	132569
#	152910
#	177883
#	194998
#
# Disc length: 2768 seconds
#
# Revision: 0
# Processed by: cddbd v1.5.1PL0 Copyright (c) Steve Scherf et al.
# Submitted via: dBpowerAMP V4.0
#
DISCID=8e0ace0b
DTITLE=Kyle Redd - Thirty Miles South of Austin
DYEAR=2004
DGENRE=Texas Country
TTITLE0=Thirty Miles South of Austin
TTITLE1=Weekend With the Boys
TTITLE2=Johnny Played Guitar
TTITLE3=Drunken Troubador
TTITLE4=Last Night
TTITLE5=Perfect Summers Day
TTITLE6=Ain't Too Well Known Yet
TTITLE7=Rosalita
TTITLE8=Texas, Shiner and You
TTITLE9=Tallyho
TTITLE10=Little Brother
EXTD=
EXTT0=
EXTT1=
EXTT2=
EXTT3=
EXTT4=
EXTT5=
EXTT6=
EXTT7=
EXTT8=
EXTT9=
EXTT10=
PLAYORDER=
